<?xml version="1.0" encoding="UTF-8"?><svg id="b" xmlns="http://www.w3.org/2000/svg" viewBox="0 0 59.46069 59.46063"><g id="c"><path d="M56.70502,23.59546h-19.51685c-.73071,0-1.323-.59235-1.323-1.323V2.75555c0-1.52185-1.23376-2.75555-2.75562-2.75555h-6.75842c-1.52191,0-2.75562,1.23376-2.75562,2.75562V22.27246c0,.73065-.59235,1.323-1.32306,1.323H2.75562c-1.52191,0-2.75562,1.23376-2.75562,2.75562v6.75848c0,1.52185,1.2337,2.75562,2.75562,2.75562H22.27246c.73071,0,1.32306,.59235,1.32306,1.323v19.51691c0,1.52185,1.2337,2.75555,2.75555,2.75555h6.75848c1.52185,0,2.75562-1.2337,2.75562-2.75555v-19.51691c0-.73065,.59229-1.323,1.323-1.323h19.51691c1.52185,0,2.75562-1.2337,2.75562-2.75555v-6.75854c0-1.52185-1.23376-2.75562-2.75568-2.75562Zm-.88483,6.13483v1.06183c0,.7912-.64142,1.43256-1.43262,1.43256h-22.1629v22.16296c0,.7912-.64136,1.43256-1.43256,1.43256h-2.1236c-.7912,0-1.43262-.64136-1.43262-1.43256v-22.16296H5.073c-.7912,0-1.43256-.64136-1.43256-1.43256v-2.1236c0-.7912,.64136-1.43256,1.43256-1.43256H27.2359V5.073c0-.7912,.64142-1.43256,1.43262-1.43256h2.1236c.7912,0,1.43256,.64136,1.43256,1.43256V27.23596h22.1629c.7912,0,1.43262,.64136,1.43262,1.43256v1.06177Z"/></g></svg>