<?xml version="1.0" encoding="UTF-8"?>
<svg id="b" xmlns="http://www.w3.org/2000/svg" viewBox="0 0 59.46069 59.46063">
    <g id="c">
        <path d="M56.70506,23.59546h-19.51687c-.73068,0-1.32302-.59233-1.32302-1.32302V2.75557c0-1.52186-1.23371-2.75557-2.75557-2.75557h-6.75845c-1.52189,0-2.75563,1.23374-2.75563,2.75563V22.27244c0,.73068-.59233,1.32302-1.32302,1.32302H2.75563c-1.52189,0-2.75563,1.23374-2.75563,2.75563v6.75845c0,1.52189,1.23374,2.75563,2.75563,2.75563H22.2725c.73068,0,1.32302,.59233,1.32302,1.32302v19.51687c0,1.52186,1.23371,2.75557,2.75557,2.75557h6.75851c1.52186,0,2.75557-1.23371,2.75557-2.75557v-19.51687c0-.73068,.59233-1.32302,1.32302-1.32302h19.51693c1.52186,0,2.75557-1.23371,2.75557-2.75557v-6.75851c0-1.52189-1.23374-2.75563-2.75563-2.75563Z"/>
    </g>
</svg>